<svg width="250" height="51" viewBox="0 0 250 51" fill="none" xmlns="http://www.w3.org/2000/svg">
<g clip-path="url(#clip0_597_670)">
<mask id="mask0_597_670" style="mask-type:luminance" maskUnits="userSpaceOnUse" x="3" y="0" width="244" height="51">
<path d="M3.03491 0.694336H246.965V50.3052H3.03491V0.694336Z" fill="white"/>
</mask>
<g mask="url(#mask0_597_670)">
<path d="M94.3776 17.8548C94.512 17.7534 94.6374 17.6429 94.756 17.5324C95.2691 16.9913 95.665 16.3503 95.919 15.6496C96.173 14.9489 96.2795 14.2034 96.232 13.4598C96.2566 12.537 96.1013 11.6183 95.7746 10.7548C95.4971 10.089 95.0802 9.49002 94.552 8.99804C94.0238 8.50607 93.3965 8.13246 92.7119 7.90222C90.8486 7.29736 88.8919 7.03081 86.9344 7.11521H67.2009V30.0648H87.4945C90.5019 30.0648 92.5933 29.5777 94.0931 28.5313C94.9118 27.9522 95.554 27.158 95.9485 26.2368C96.363 25.241 96.562 24.169 96.5323 23.091C96.6407 21.459 96.1435 19.8443 95.1354 18.555C94.9095 18.2934 94.6566 18.0589 94.3776 17.856V17.8548ZM91.464 14.7102C91.3059 15.0169 91.062 15.2446 90.3359 15.4487C89.1682 15.6877 87.9756 15.7858 86.7842 15.7396H71.708V11.4787H86.9186C89.6492 11.4787 90.7232 11.7696 91.1569 12.021C91.335 12.1036 91.476 12.2496 91.5521 12.4303C91.6718 12.7709 91.7226 13.1317 91.7012 13.4913C91.7102 13.9119 91.6221 14.3291 91.4414 14.7102H91.464ZM71.708 20.0095H87.0755C89.7746 20.0095 90.8644 20.3872 91.315 20.7086C91.5499 20.8664 91.7238 21.0987 91.804 21.3693C91.9485 21.8451 92.0129 22.3424 91.9937 22.8396C92.0163 23.3898 91.9451 23.9412 91.7802 24.4677C91.7092 24.6665 91.5901 24.8446 91.4335 24.9864C91.0368 25.274 90.5715 25.4528 90.084 25.5051C89.0597 25.6607 88.0242 25.7272 86.9897 25.7013H71.708V20.0095ZM108.688 20.1268H127.064V15.8276H108.688V11.4798H130.103V7.11634H104.22V30.0659H130.253V25.7024H108.688V20.1268ZM142.259 7.92477C141.178 8.24418 140.176 8.78643 139.318 9.51648C138.46 10.2465 137.765 11.1482 137.278 12.1631C136.433 14.1951 136.053 16.3895 136.165 18.5866C136.165 21.3614 136.441 24.514 138.47 26.8412C139.51 27.9806 140.838 28.8198 142.314 29.271C144.225 29.846 146.215 30.111 148.21 30.0569H164.85V25.7013H148.511C147.084 25.7378 145.659 25.5873 144.271 25.2536C143.674 25.1384 143.109 24.8943 142.615 24.5385C142.122 24.1828 141.712 23.7238 141.414 23.1936C140.878 22.1947 140.625 20.7323 140.625 18.5866C140.599 17.4506 140.708 16.3156 140.949 15.2052C141.055 14.6342 141.286 14.0935 141.624 13.6209C141.962 13.1484 142.4 12.7555 142.906 12.4698C144.074 11.8091 145.945 11.4787 148.432 11.4787H164.85V7.11521H148.21C146.196 7.06075 144.186 7.33418 142.259 7.92477ZM205.484 7.11521H197.362L178.165 18.1221V7.11521H173.698V30.0648H178.165V23.0516L184.615 19.3093L198.468 30.0659H205.532L188.744 17.0137L205.484 7.11521ZM246.547 20.0332C246.306 19.3244 245.918 18.6744 245.408 18.1257C244.897 17.577 244.277 17.142 243.587 16.8491C241.762 16.1348 239.806 15.8158 237.848 15.9132H226.742C225.919 15.9244 225.097 15.8561 224.287 15.7092C223.964 15.6608 223.651 15.5571 223.363 15.4025C223.257 15.3545 223.161 15.285 223.082 15.1983C223.003 15.1115 222.943 15.0095 222.906 14.8985C222.774 14.466 222.718 14.014 222.74 13.5624C222.727 13.1965 222.769 12.8307 222.867 12.4777C222.969 12.2105 223.064 12.038 223.593 11.8328C224.617 11.5331 225.684 11.4081 226.75 11.4629H245.916V7.11521H226.466C223.64 7.11521 221.611 7.64965 220.245 8.75011C219.538 9.31642 218.993 10.0599 218.667 10.9048C218.362 11.7516 218.215 12.6468 218.233 13.5466C218.209 14.5198 218.351 15.49 218.651 16.4161C218.882 17.0752 219.25 17.6784 219.73 18.1863C220.211 18.6943 220.792 19.0957 221.438 19.3646C223.026 19.9678 224.721 20.235 226.418 20.1505H237.351C239.593 20.1505 241.053 20.3636 241.708 20.7717C241.958 20.9217 242.146 21.1517 242.244 21.4246C242.402 21.9207 242.471 22.4393 242.45 22.958C242.478 23.4902 242.408 24.0224 242.244 24.5298C242.181 24.7154 242.069 24.8811 241.921 25.0101C241.51 25.2892 241.035 25.4595 240.54 25.5051C239.495 25.6505 238.437 25.7114 237.383 25.6855H218.951V30.049H237.729C241.029 30.049 243.081 29.5935 244.573 28.5482C245.409 27.9599 246.054 27.1399 246.428 26.1895C246.815 25.151 246.996 24.0483 246.965 22.9422C246.988 21.9561 246.847 20.9731 246.547 20.0332ZM207.648 13.1294H212.242L214.168 7.02952H209.574L207.648 13.1294ZM57.097 0.789048H56.0242V50.3052H57.097V0.789048ZM44.4285 47.0816C44.7403 47.0819 45.0451 47.1742 45.3045 47.3469C45.5639 47.5196 45.7663 47.7651 45.8864 48.0524C46.0062 48.3397 46.0377 48.6562 45.9768 48.9614C45.9158 49.2666 45.7652 49.5468 45.5442 49.7663C45.3232 49.9852 45.0422 50.1342 44.7367 50.1944C44.4312 50.2545 44.1147 50.2233 43.8269 50.1045C43.5391 49.9858 43.2928 49.7848 43.119 49.5269C42.9451 49.2689 42.8514 48.9654 42.8497 48.6545C42.8494 48.4476 42.8901 48.2427 42.9693 48.0515C43.0486 47.8603 43.1649 47.6866 43.3116 47.5405C43.4584 47.3943 43.6325 47.2785 43.8242 47.1998C44.0159 47.1211 44.2212 47.0809 44.4285 47.0816ZM44.4285 47.3331C44.0878 47.3592 43.7695 47.5124 43.537 47.7624C43.3045 48.0123 43.1748 48.3405 43.1738 48.6816C43.1735 49.0229 43.3025 49.3517 43.5351 49.6019C43.7676 49.852 44.0864 50.005 44.4273 50.0301C44.768 50.004 45.0863 49.8507 45.3188 49.6008C45.5513 49.3509 45.681 49.0227 45.682 48.6816C45.6823 48.3403 45.5533 48.0115 45.3207 47.7613C45.0882 47.5112 44.7694 47.3582 44.4285 47.3331ZM44.1281 49.605H43.8435V47.7897C44.0129 47.7751 44.1811 47.7751 44.3494 47.7897C44.5269 47.7652 44.7078 47.7926 44.87 47.8687C44.9267 47.911 44.9717 47.9671 45.0007 48.0316C45.0298 48.0961 45.0419 48.1669 45.036 48.2374C45.0349 48.3371 44.9999 48.4335 44.9367 48.5107C44.8735 48.588 44.7859 48.6415 44.6882 48.6624C44.8463 48.6624 44.948 48.8349 44.9886 49.0943C45.0033 49.2454 45.0406 49.3942 45.0993 49.534H44.7989C44.7358 49.3893 44.6958 49.2356 44.6803 49.0785C44.6776 49.032 44.6652 48.9867 44.6437 48.9454C44.6223 48.9041 44.5924 48.8678 44.5559 48.8389C44.5195 48.8099 44.4773 48.789 44.4322 48.7774C44.3871 48.7659 44.34 48.7639 44.2941 48.7718H44.0965L44.1281 49.605ZM44.1281 48.623H44.3336C44.5708 48.623 44.7673 48.5361 44.7673 48.3163C44.7673 48.0964 44.6566 48.0006 44.3336 48.0006H44.1281V48.623ZM19.3827 9.2804H45.5725C45.3641 8.58901 45.1001 7.91557 44.7831 7.26665H18.8226C18.9807 7.96684 19.1783 8.64223 19.3839 9.2804H19.3827ZM18.6408 6.59916H44.4115C44.0446 5.95365 43.6194 5.34299 43.1411 4.77483H18.2534C18.372 5.41188 18.4985 6.01736 18.6408 6.59916ZM34.5606 0.694336H3.03491V2.21987H40.0784C38.3937 1.26369 36.4979 0.739534 34.5606 0.694336ZM20.4635 12.2052H46.1247C46.0703 11.4873 45.9597 10.7748 45.7938 10.0742H19.6109C19.9033 10.8206 20.1789 11.5287 20.4635 12.2052ZM44.4759 19.6028C44.9479 18.8068 45.324 17.9567 45.5962 17.0716H22.8712C23.3522 17.9364 23.8266 18.7696 24.276 19.6028H44.4759ZM17.9056 2.5818C17.9847 3.14782 18.0637 3.69805 18.1586 4.2246H42.6284C42.0388 3.60913 41.385 3.0584 40.678 2.5818H3.03491V4.22347H17.4957C17.7407 3.19292 17.9056 2.58068 17.9056 2.58068V2.5818ZM46.1721 13.2741H20.9129C21.3003 14.131 21.7035 14.9406 22.1134 15.7118H45.944C46.0942 14.9079 46.171 14.0915 46.1721 13.2741ZM20.7955 49.4404C25.1433 46.8855 24.1179 30.1226 18.8926 25.272C18.0702 24.4667 17.4416 23.4856 17.0541 22.4025H3.03491V50.2263H20.1326C20.1828 50.0567 20.2676 49.8993 20.3817 49.7641C20.4958 49.6288 20.6367 49.5186 20.7955 49.4404ZM16.0592 17.0716H3.03491V19.6028H16.3122C16.1787 18.7647 16.0942 17.9195 16.0592 17.0716ZM17.3771 4.77483H3.03491V6.59916H16.9988C17.1241 5.92265 17.2427 5.30928 17.3771 4.77483Z" fill="black"/>
<path d="M35.4844 25.4287C37.9353 25.0449 40.2341 23.9983 42.1315 22.4024H25.6809C28.1755 27.9679 28.9096 34.5797 23.0214 49.605C22.9423 49.8418 23.2416 49.9511 23.3376 50.242H35.2167C48.983 49.9985 50.293 26.8685 35.4844 25.4287ZM16.1145 13.274H3.03491V15.7117H16.0276C16.0276 14.8458 16.0592 14.0599 16.1145 13.274ZM16.8723 7.26773H3.03491V9.28035H16.5414C16.643 8.55648 16.7537 7.90591 16.8723 7.26773ZM16.4533 10.0741H3.03491V12.2051H16.1936C16.2568 11.4734 16.3359 10.7574 16.4533 10.0741Z" fill="black"/>
</g>
<path d="M66.96 46.6943V45.5743H68.528V36.6463H66.96V35.5263H71.44V36.6463H69.872V45.5743H71.44V46.6943H66.96ZM73.7663 46.6943V38.4383H75.0463V39.7823H75.1103C75.3129 39.313 75.5956 38.9397 75.9583 38.6623C76.3316 38.385 76.8276 38.2463 77.4463 38.2463C78.2996 38.2463 78.9716 38.5237 79.4623 39.0783C79.9636 39.6223 80.2143 40.3957 80.2143 41.3983V46.6943H78.9343V41.6223C78.9343 40.1397 78.3103 39.3983 77.0623 39.3983C76.8063 39.3983 76.5556 39.4303 76.3103 39.4943C76.0756 39.5583 75.8623 39.6543 75.6703 39.7823C75.4783 39.9103 75.3236 40.0757 75.2063 40.2783C75.0996 40.4703 75.0463 40.6997 75.0463 40.9663V46.6943H73.7663ZM82.86 46.6943V38.4383H84.14V39.7823H84.204C84.4067 39.313 84.6893 38.9397 85.052 38.6623C85.4253 38.385 85.9213 38.2463 86.54 38.2463C87.3933 38.2463 88.0653 38.5237 88.556 39.0783C89.0573 39.6223 89.308 40.3957 89.308 41.3983V46.6943H88.028V41.6223C88.028 40.1397 87.404 39.3983 86.156 39.3983C85.9 39.3983 85.6493 39.4303 85.404 39.4943C85.1693 39.5583 84.956 39.6543 84.764 39.7823C84.572 39.9103 84.4173 40.0757 84.3 40.2783C84.1933 40.4703 84.14 40.6997 84.14 40.9663V46.6943H82.86ZM95.0738 46.8863C94.5191 46.8863 94.0124 46.785 93.5538 46.5823C93.0951 46.3797 92.7004 46.0917 92.3698 45.7183C92.0498 45.3343 91.7991 44.881 91.6178 44.3583C91.4364 43.825 91.3458 43.2277 91.3458 42.5663C91.3458 41.9157 91.4364 41.3237 91.6178 40.7903C91.7991 40.257 92.0498 39.8037 92.3698 39.4303C92.7004 39.0463 93.0951 38.753 93.5538 38.5503C94.0124 38.3477 94.5191 38.2463 95.0738 38.2463C95.6284 38.2463 96.1298 38.3477 96.5778 38.5503C97.0364 38.753 97.4311 39.0463 97.7618 39.4303C98.0924 39.8037 98.3484 40.257 98.5298 40.7903C98.7111 41.3237 98.8018 41.9157 98.8018 42.5663C98.8018 43.2277 98.7111 43.825 98.5298 44.3583C98.3484 44.881 98.0924 45.3343 97.7618 45.7183C97.4311 46.0917 97.0364 46.3797 96.5778 46.5823C96.1298 46.785 95.6284 46.8863 95.0738 46.8863ZM95.0738 45.7503C95.7671 45.7503 96.3324 45.537 96.7698 45.1103C97.2071 44.6837 97.4258 44.033 97.4258 43.1583V41.9743C97.4258 41.0997 97.2071 40.449 96.7698 40.0223C96.3324 39.5957 95.7671 39.3823 95.0738 39.3823C94.3804 39.3823 93.8151 39.5957 93.3778 40.0223C92.9404 40.449 92.7218 41.0997 92.7218 41.9743V43.1583C92.7218 44.033 92.9404 44.6837 93.3778 45.1103C93.8151 45.537 94.3804 45.7503 95.0738 45.7503ZM102.606 46.6943L99.7099 38.4383H100.99L102.43 42.5343L103.326 45.3503H103.406L104.302 42.5343L105.774 38.4383H107.006L104.094 46.6943H102.606ZM114.516 46.6943C114.036 46.6943 113.69 46.5663 113.476 46.3103C113.274 46.0543 113.146 45.7343 113.092 45.3503H113.012C112.831 45.8623 112.532 46.2463 112.116 46.5023C111.7 46.7583 111.204 46.8863 110.628 46.8863C109.754 46.8863 109.071 46.6623 108.58 46.2143C108.1 45.7663 107.86 45.1583 107.86 44.3903C107.86 43.6117 108.143 43.0143 108.708 42.5983C109.284 42.1823 110.175 41.9743 111.38 41.9743H113.012V41.1583C113.012 40.5717 112.852 40.1237 112.532 39.8143C112.212 39.505 111.722 39.3503 111.06 39.3503C110.559 39.3503 110.138 39.4623 109.796 39.6863C109.466 39.9103 109.188 40.209 108.964 40.5823L108.196 39.8623C108.42 39.4143 108.778 39.0357 109.268 38.7263C109.759 38.4063 110.378 38.2463 111.124 38.2463C112.127 38.2463 112.906 38.4917 113.46 38.9823C114.015 39.473 114.292 40.1557 114.292 41.0303V45.5743H115.236V46.6943H114.516ZM110.836 45.7983C111.156 45.7983 111.45 45.761 111.716 45.6863C111.983 45.6117 112.212 45.505 112.404 45.3663C112.596 45.2277 112.746 45.0677 112.852 44.8863C112.959 44.705 113.012 44.5077 113.012 44.2943V42.9343H111.316C110.58 42.9343 110.042 43.041 109.7 43.2543C109.37 43.4677 109.204 43.777 109.204 44.1823V44.5183C109.204 44.9237 109.348 45.2383 109.636 45.4623C109.935 45.6863 110.335 45.7983 110.836 45.7983ZM118.887 46.6943C118.439 46.6943 118.098 46.5717 117.863 46.3263C117.639 46.0703 117.527 45.7397 117.527 45.3343V39.5583H116.167V38.4383H116.935C117.212 38.4383 117.399 38.385 117.495 38.2783C117.602 38.161 117.655 37.9637 117.655 37.6863V36.1503H118.807V38.4383H120.615V39.5583H118.807V45.5743H120.487V46.6943H118.887ZM123.312 36.5023C123.035 36.5023 122.833 36.4383 122.705 36.3103C122.587 36.1717 122.529 35.9957 122.529 35.7823V35.5743C122.529 35.361 122.587 35.1903 122.705 35.0623C122.833 34.9237 123.035 34.8543 123.312 34.8543C123.59 34.8543 123.787 34.9237 123.905 35.0623C124.033 35.1903 124.097 35.361 124.097 35.5743V35.7823C124.097 35.9957 124.033 36.1717 123.905 36.3103C123.787 36.4383 123.59 36.5023 123.312 36.5023ZM122.673 38.4383H123.953V46.6943H122.673V38.4383ZM129.793 46.8863C129.238 46.8863 128.731 46.785 128.273 46.5823C127.814 46.3797 127.419 46.0917 127.089 45.7183C126.769 45.3343 126.518 44.881 126.337 44.3583C126.155 43.825 126.065 43.2277 126.065 42.5663C126.065 41.9157 126.155 41.3237 126.337 40.7903C126.518 40.257 126.769 39.8037 127.089 39.4303C127.419 39.0463 127.814 38.753 128.273 38.5503C128.731 38.3477 129.238 38.2463 129.793 38.2463C130.347 38.2463 130.849 38.3477 131.297 38.5503C131.755 38.753 132.15 39.0463 132.481 39.4303C132.811 39.8037 133.067 40.257 133.249 40.7903C133.43 41.3237 133.521 41.9157 133.521 42.5663C133.521 43.2277 133.43 43.825 133.249 44.3583C133.067 44.881 132.811 45.3343 132.481 45.7183C132.15 46.0917 131.755 46.3797 131.297 46.5823C130.849 46.785 130.347 46.8863 129.793 46.8863ZM129.793 45.7503C130.486 45.7503 131.051 45.537 131.489 45.1103C131.926 44.6837 132.145 44.033 132.145 43.1583V41.9743C132.145 41.0997 131.926 40.449 131.489 40.0223C131.051 39.5957 130.486 39.3823 129.793 39.3823C129.099 39.3823 128.534 39.5957 128.097 40.0223C127.659 40.449 127.441 41.0997 127.441 41.9743V43.1583C127.441 44.033 127.659 44.6837 128.097 45.1103C128.534 45.537 129.099 45.7503 129.793 45.7503ZM135.626 46.6943V38.4383H136.906V39.7823H136.97C137.172 39.313 137.455 38.9397 137.818 38.6623C138.191 38.385 138.687 38.2463 139.306 38.2463C140.159 38.2463 140.831 38.5237 141.322 39.0783C141.823 39.6223 142.074 40.3957 142.074 41.3983V46.6943H140.794V41.6223C140.794 40.1397 140.17 39.3983 138.922 39.3983C138.666 39.3983 138.415 39.4303 138.17 39.4943C137.935 39.5583 137.722 39.6543 137.53 39.7823C137.338 39.9103 137.183 40.0757 137.066 40.2783C136.959 40.4703 136.906 40.6997 136.906 40.9663V46.6943H135.626Z" fill="black"/>
</g>
<defs>
<clipPath id="clip0_597_670">
<rect width="250" height="49.6109" fill="white" transform="translate(0 0.694336)"/>
</clipPath>
</defs>
</svg>
