<svg width="22" height="22" viewBox="0 0 22 22" fill="none" xmlns="http://www.w3.org/2000/svg">
<path d="M2 0C0.89543 0 0 0.895431 0 2V20C0 21.1046 0.895431 22 2 22H20C21.1046 22 22 21.1046 22 20V2C22 0.89543 21.1046 0 20 0H2ZM7.16375 17.9369H4.28313V8.66937H7.16375V17.9369ZM5.72 7.40438C4.79875 7.40438 4.04938 6.655 4.04938 5.73375C4.04938 4.8125 4.79875 4.06313 5.72 4.06313C6.64125 4.06313 7.39062 4.8125 7.39062 5.73375C7.39062 6.655 6.64125 7.40438 5.72 7.40438ZM17.9506 17.9369H15.07V13.4269C15.07 12.3544 15.0494 10.9725 13.5713 10.9725C12.0931 10.9725 11.8456 12.1413 11.8456 13.3513V17.93H8.965V8.66937H11.7288V9.93437H11.77C12.155 9.20562 13.0969 8.43563 14.4994 8.43563C17.4075 8.43563 17.9506 10.3606 17.9506 12.8494V17.9369Z" fill="#873FE0"/>
</svg>
