<svg width="180" height="42" viewBox="0 0 180 42" fill="none" xmlns="http://www.w3.org/2000/svg">
<g clip-path="url(#clip0_4070_21054)">
<path d="M0.602826 31.5259C16.4638 45.5259 39.9988 45.454 55.7848 31.5259C56.4598 30.9298 56.5888 29.9231 56.0698 29.1891L35.9158 0.733735C35.5438 0.209446 34.9168 -0.0631839 34.2778 0.00871852C30.4408 0.443129 26.3908 0.467096 22.0948 0.00871852C21.4618 -0.057192 20.8378 0.212442 20.4688 0.733735L0.320826 29.1891C-0.201174 29.9231 -0.0721745 30.9298 0.605826 31.5259H0.602826Z" fill="url(#paint0_linear_4070_21055)"/>
<path d="M68.6044 22.7661L66.2254 22.2838C65.2624 22.089 64.6504 21.4808 64.6504 20.645C64.6504 19.6803 65.5834 18.8474 66.9034 18.8474C68.9914 18.8474 69.6694 20.2915 69.7954 21.1902L72.9454 20.2915C72.6874 18.7516 71.2744 15.9234 66.9034 15.9234C63.6544 15.9234 61.1494 18.2363 61.1494 20.9655C61.1494 23.1166 62.5954 24.9172 65.3614 25.5254L67.6774 26.0407C68.9314 26.2983 69.5104 26.9394 69.5104 27.7723C69.5104 28.737 68.7064 29.5699 67.1644 29.5699C65.1724 29.5699 64.1104 28.3176 63.9814 26.9035L60.7324 27.8023C60.9274 29.5669 62.6614 32.5209 67.1944 32.5209C71.1814 32.5209 73.1104 29.8874 73.1104 27.5117C73.1104 25.1359 71.5684 23.4012 68.6074 22.7601L68.6044 22.7661Z" fill="#873FE0"/>
<path d="M82.2964 15.9354C77.6344 15.9354 74.1934 19.4346 74.1934 24.2191C74.1934 29.0036 77.6344 32.5328 82.2964 32.5328C86.9584 32.5328 90.4294 29.0336 90.4294 24.2191C90.4294 19.4047 86.9914 15.9354 82.2964 15.9354ZM82.2964 29.1954C80.0134 29.1954 77.9254 27.4637 77.9254 24.2191C77.9254 20.9745 80.0134 19.3058 82.2964 19.3058C84.5794 19.3058 86.6674 20.9745 86.6674 24.2191C86.6674 27.4637 84.6094 29.1954 82.2964 29.1954Z" fill="#873FE0"/>
<path d="M108.387 26.9814V19.7252H111.636V16.4177H108.387V11.6332H105.012V13.976C105.012 15.3572 104.271 16.4177 102.6 16.4177H97.5693V14.3625C97.5693 12.4361 98.8863 11.9867 99.8823 11.9867C100.59 11.9867 101.007 12.0826 101.232 12.1485V8.96983C100.974 8.841 100.203 8.64926 99.2703 8.64926C96.0543 8.64926 93.8043 10.7674 93.8043 14.2696V16.4207H91.0713V19.6623H93.8043V32.0565H97.5663V19.6623H104.688V27.5926C104.688 30.5136 106.488 32.2482 109.38 32.2482C110.73 32.2482 111.438 31.9906 111.663 31.8947V28.8119C111.501 28.8419 110.892 28.9407 110.376 28.9407C108.993 28.9407 108.384 28.3625 108.384 26.9814H108.387Z" fill="#873FE0"/>
<path d="M131.166 27.239L127.47 16.4177H123.612L119.913 27.239L116.73 16.4177H112.743L117.825 32.0535H121.65L125.442 20.8157L129.333 32.0535H133.065L138.078 16.4177H134.286L131.166 27.239Z" fill="#873FE0"/>
<path d="M151.77 21.7804C151.77 18.6647 149.937 15.9354 145.116 15.9354C141.258 15.9354 138.816 18.3441 138.525 21.0404L141.933 21.8134C142.095 20.2405 143.187 18.9882 145.149 18.9882C147.111 18.9882 148.107 20.0488 148.107 21.364C148.107 21.9093 147.849 22.3587 146.949 22.4875L142.932 23.0957C140.265 23.4821 138.207 25.022 138.207 27.8172C138.207 30.2889 140.232 32.5358 143.511 32.5358C146.052 32.5358 147.594 31.2506 148.335 30.0642C148.335 31.3165 148.464 31.9576 148.497 32.0535H151.968C151.935 31.8917 151.773 30.96 151.773 29.5489V21.7804H151.77ZM148.104 25.5703C148.104 28.6202 146.304 29.6148 144.213 29.6148C142.734 29.6148 141.93 28.6531 141.93 27.5925C141.93 26.3073 142.863 25.6662 144.021 25.4744L148.104 24.8663V25.5733V25.5703Z" fill="#873FE0"/>
<path d="M158.485 18.9223V16.4177H154.852V32.0535H158.581V24.6056C158.581 21.6846 159.901 20.0158 162.793 20.0158C163.18 20.0158 163.597 20.0458 164.014 20.1117V16.3218C163.852 16.2889 163.468 16.226 163.018 16.226C160.96 16.226 159.223 17.2206 158.485 18.9223Z" fill="#873FE0"/>
<path d="M180.001 24.0843C180.001 19.141 177.172 15.9593 172.348 15.9593C168.394 15.9593 164.728 19.2339 164.728 24.1802C164.728 29.48 168.49 32.5598 172.732 32.5598C176.494 32.5598 178.969 30.3428 179.806 27.6165L176.656 26.6219C176.14 28.1618 174.985 29.3512 172.732 29.3512C170.479 29.3512 168.553 27.6495 168.457 25.2737H179.902C179.935 25.2108 179.998 24.6955 179.998 24.0873L180.001 24.0843ZM168.556 22.5444C168.685 20.8727 170.035 19.0781 172.381 19.0781C174.952 19.0781 176.176 20.7139 176.239 22.5444H168.556Z" fill="#873FE0"/>
<path d="M18.9692 23.1196L22.9862 22.5114C23.8862 22.3826 24.1442 21.9332 24.1442 21.388C24.1442 20.0698 23.2442 19.0122 21.1862 19.0122C19.1282 19.0122 18.1322 20.2645 17.9702 21.8374L14.5622 21.0644C14.8502 18.3681 17.2952 15.9593 21.1532 15.9593C25.9772 15.9593 27.8072 18.6886 27.8072 21.8044V29.5729C27.8072 30.9869 27.9692 31.9157 28.0022 32.0775H24.5312C24.4982 31.9816 24.3692 31.3375 24.3692 30.0882C23.6282 31.2746 22.0862 32.5598 19.5452 32.5598C16.2662 32.5598 14.2412 30.3129 14.2412 27.8412C14.2412 25.046 16.2992 23.5061 18.9662 23.1196H18.9692ZM24.1442 25.5943V24.8872L20.0612 25.4954C18.9032 25.6871 17.9702 26.3313 17.9702 27.6135C17.9702 28.6741 18.7742 29.6358 20.2532 29.6358C22.3412 29.6358 24.1442 28.6411 24.1442 25.5913V25.5943Z" fill="white"/>
<path d="M33.042 26.9424C33.171 28.3565 34.23 29.6088 36.225 29.6088C37.767 29.6088 38.571 28.773 38.571 27.8113C38.571 26.9754 37.992 26.3343 36.738 26.0796L34.422 25.5643C31.656 24.9561 30.21 23.1556 30.21 21.0045C30.21 18.2752 32.718 15.9623 35.964 15.9623C40.338 15.9623 41.751 18.7875 42.009 20.3304L38.859 21.2292C38.73 20.3304 38.055 18.8864 35.964 18.8864C34.647 18.8864 33.714 19.7222 33.714 20.6839C33.714 21.5198 34.326 22.128 35.289 22.3227L37.668 22.8051C40.626 23.4462 42.171 25.2467 42.171 27.5566C42.171 29.8665 40.242 32.5658 36.255 32.5658C31.722 32.5658 29.985 29.6118 29.793 27.8472L33.039 26.9484L33.042 26.9424Z" fill="white"/>
</g>
<defs>
<linearGradient id="paint0_linear_4070_21055" x1="28.5538" y1="30.8189" x2="5.91994" y2="-8.43644" gradientUnits="userSpaceOnUse">
<stop stop-color="#873FE0"/>
<stop offset="1" stop-color="#C39EEF"/>
</linearGradient>
<clipPath id="clip0_4070_21054">
<rect width="180" height="42" fill="white"/>
</clipPath>
</defs>
</svg>
