<svg width="22" height="18" viewBox="0 0 22 18" fill="none" xmlns="http://www.w3.org/2000/svg">
<path d="M19.7517 5.07682C19.7517 4.88046 19.7517 4.68 19.7395 4.48773C20.6202 3.84546 21.3872 3.03955 22 2.13136C21.1883 2.48727 20.3117 2.74091 19.4027 2.83909C20.3402 2.27864 21.0463 1.39091 21.3831 0.339545C20.5147 0.855 19.5407 1.23955 18.522 1.43182C17.6982 0.548182 16.5294 0 15.2308 0C12.4792 0 10.1904 2.49955 10.8275 5.58818C9.0346 5.49799 7.28057 5.0285 5.67944 4.21022C4.0783 3.39194 2.6659 2.24319 1.53403 0.838637C1.14038 1.50955 0.921233 2.28273 0.921233 3.12955C0.921733 3.87758 1.10533 4.61393 1.45576 5.2733C1.80618 5.93268 2.31259 6.4947 2.93009 6.90954C2.19554 6.88091 1.49345 6.67227 0.896883 6.33273V6.39C0.894799 7.43894 1.25303 8.45625 1.91071 9.26911C2.56839 10.082 3.48496 10.6403 4.5047 10.8491C3.79045 11.0332 3.16547 11.0332 2.4715 10.9309C3.03966 12.7309 4.70356 14.04 6.68401 14.0809C5.1378 15.3 3.19793 16.02 1.08762 16.02C0.71426 16.02 0.365246 16.0036 0 15.9627C1.99668 17.2514 4.36672 18 6.92345 18C15.2145 18 19.7517 11.0823 19.7517 5.07682Z" fill="#873FE0"/>
</svg>
