<svg width="108" height="92" viewBox="0 0 108 92" fill="none" xmlns="http://www.w3.org/2000/svg">
  <path d="M36.2933 43.8936C26.6133 46.5603 19.84 52.8003 19.84 60.0803C19.84 69.787 31.92 77.6536 46.8 77.6536C59.4133 77.6536 70 72.0003 72.9067 64.347C73.1733 64.347 73.4667 64.4003 73.7333 64.4003M73.7333 64.347C81.4933 64.347 87.7867 58.0537 87.7867 50.2937C87.7867 42.5337 81.4933 36.2403 73.7333 36.2403C65.9733 36.2403 59.68 42.5337 59.68 50.2937C59.68 51.0403 59.7333 51.787 59.84 52.4803M36.1867 61.227L40.5867 57.707C45.2 54.0003 47.8933 48.4003 47.8933 42.4803C47.8933 38.587 44.7467 35.4403 40.8533 35.4403H36.16L35.7067 34.0803C34.7467 31.227 31.3333 30.0536 28.8267 31.7336C27.5467 32.587 26.8 34.027 26.8 35.547V47.1736M61.9467 56.5603C61.9467 53.9736 59.84 51.867 57.2533 51.867H54.9067V49.5203C54.9067 46.9336 52.8 44.827 50.2133 44.827H47.8667M45.52 51.867V54.2137C45.52 58.107 48.6667 61.2537 52.56 61.2537M73.68 20.5336C59.1733 16.9603 45.3333 16.0536 32.8267 20.5336M106 68.0003C95.8133 79.8137 76.4533 89.6803 54 89.6803C31.5733 89.6803 12.2133 79.8403 2 68.0003L29.52 2.32031C37.68 5.28031 45.84 6.26698 54 6.26698C62.16 6.26698 70.32 5.28031 78.48 2.32031L106 67.9737V68.0003Z" stroke="#873FE0" stroke-width="4" stroke-linecap="round" stroke-linejoin="round"/>
</svg>