<svg width="22" height="22" viewBox="0 0 22 22" fill="none" xmlns="http://www.w3.org/2000/svg">
<rect width="22" height="22" rx="2" fill="#873FE0"/>
<path d="M17.3789 5.64062C17.016 5.23765 16.4903 5.02326 15.8167 5.00271C13.9153 4.9395 12.5702 5.98091 11.8199 8.09638C11.7804 8.20752 11.8045 8.33079 11.8828 8.41823C11.9606 8.50514 12.0773 8.53938 12.1874 8.5083C12.4033 8.4472 12.6173 8.41612 12.8236 8.41612C13.1005 8.41612 13.4695 8.46827 13.6532 8.71848C13.794 8.91022 13.8129 9.19783 13.7101 9.57289C13.623 9.88947 13.1752 10.737 12.6209 11.6336C11.9453 12.7261 11.5726 13.216 11.4652 13.216C11.1089 13.216 9.82116 7.33995 9.78584 7.21142C9.41579 5.86397 9.23051 5.18813 8.02975 5.18813C7.1146 5.18813 5.0729 6.90853 3.39666 8.40717C3.29378 8.49935 3.20677 8.57678 3.13972 8.63631C2.97747 8.77906 2.95341 9.02611 3.08393 9.19994L3.39615 9.61397C3.52769 9.78833 3.76774 9.82521 3.94278 9.6972L3.96018 9.68456C4.50221 9.28738 5.01456 8.91286 5.4015 8.89179C5.82171 8.87072 6.18614 9.54655 6.62119 11.1542C7.44934 14.2774 8.70742 18 9.99825 18C11.2891 18 12.9566 16.8232 15.0372 14.0367C16.9203 11.5145 17.9286 9.51442 17.9931 8.0595C18.0417 6.96068 17.8349 6.14684 17.3794 5.64115L17.3789 5.64062Z" fill="white"/>
</svg>
