<svg width="20" height="15" viewBox="0 0 20 15" fill="none" xmlns="http://www.w3.org/2000/svg">
<path d="M1 6.75C0.585786 6.75 0.25 7.08579 0.25 7.5C0.25 7.91421 0.585786 8.25 1 8.25V6.75ZM18 8.25C18.4142 8.25 18.75 7.91421 18.75 7.5C18.75 7.08579 18.4142 6.75 18 6.75V8.25ZM13.5303 0.96967C13.2374 0.676777 12.7626 0.676777 12.4697 0.96967C12.1768 1.26256 12.1768 1.73744 12.4697 2.03033L13.5303 0.96967ZM19 7.5L19.5303 8.03033C19.8232 7.73744 19.8232 7.26256 19.5303 6.96967L19 7.5ZM12.4697 12.9697C12.1768 13.2626 12.1768 13.7374 12.4697 14.0303C12.7626 14.3232 13.2374 14.3232 13.5303 14.0303L12.4697 12.9697ZM1 8.25H18V6.75H1V8.25ZM12.4697 2.03033L18.4697 8.03033L19.5303 6.96967L13.5303 0.96967L12.4697 2.03033ZM18.4697 6.96967L12.4697 12.9697L13.5303 14.0303L19.5303 8.03033L18.4697 6.96967Z" fill="url(#paint0_linear_3752_18636)"/>
<defs>
<linearGradient id="paint0_linear_3752_18636" x1="0.586673" y1="5.0124" x2="19.7336" y2="7.26522" gradientUnits="userSpaceOnUse">
<stop stop-color="#3A8CDD"/>
<stop offset="1" stop-color="#873FE0"/>
</linearGradient>
</defs>
</svg>
