<svg width="78" height="65" viewBox="0 0 78 65" fill="none" xmlns="http://www.w3.org/2000/svg">
<path d="M48.68 55.1701H57.48C67.69 55.1701 75.96 46.9001 75.96 36.6901C75.96 28.0601 70.04 20.8401 62.05 18.8001C58.54 9.46006 49.56 2.81006 39 2.81006C26.34 2.81006 15.91 12.3701 14.53 24.6601C7.42004 26.0201 2.04004 32.2601 2.04004 39.7701C2.04004 46.1501 5.92004 51.6201 11.45 53.9601M41.72 44.0301C39.97 39.3601 35.48 36.0301 30.2 36.0301C23.87 36.0301 18.66 40.8101 17.96 46.9601C14.4 47.6401 11.72 50.7601 11.72 54.5101C11.72 58.7601 15.17 62.2101 19.42 62.2101H39.44C44.54 62.2101 48.68 58.0701 48.68 52.9701C48.68 48.6601 45.72 45.0501 41.72 44.0301Z" stroke="#873FE0" stroke-width="4" stroke-miterlimit="10"/>
</svg>
