<svg width="76" height="75" viewBox="0 0 76 75" fill="none" xmlns="http://www.w3.org/2000/svg">
<path d="M46.9502 2.02002C32.3702 2.02002 20.5502 13.84 20.5502 28.42C20.5502 43 32.3702 54.82 46.9502 54.82C61.5302 54.82 73.3502 43 73.3502 28.42C73.3502 13.84 61.5302 2.02002 46.9502 2.02002ZM55.0302 27.38C51.1402 27.38 47.9902 24.23 47.9902 20.34C47.9902 16.45 51.1402 13.3 55.0302 13.3C58.9202 13.3 62.0702 16.45 62.0702 20.34C62.0702 24.23 58.9202 27.38 55.0302 27.38Z" stroke="#873FE0" stroke-width="4" stroke-miterlimit="10"/>
<path d="M22.6202 38.68L3.9802 57.31C3.3202 57.97 2.9502 58.87 2.9502 59.8V68.9C2.9502 70.84 4.5302 72.42 6.4702 72.42H15.5702C16.5002 72.42 17.4002 72.05 18.0602 71.39L22.6102 66.84C23.5402 65.91 24.0702 64.64 24.0702 63.32C24.0702 60.57 26.3002 58.34 29.0502 58.34C30.3702 58.34 31.6402 57.82 32.5702 56.88L36.7002 52.75C30.3602 50.08 25.2902 45 22.6202 38.67V38.68Z" stroke="#873FE0" stroke-width="4" stroke-miterlimit="10"/>
</svg>
