<svg width="79" height="76" viewBox="0 0 79 76" fill="none" xmlns="http://www.w3.org/2000/svg">
<path d="M76.96 39.8001L65.94 28.7801C64.38 27.2201 64.87 24.6001 66.87 23.6701C68.44 22.9401 70.03 22.0901 70.8 21.3201C74.2 17.9201 74.2 12.4001 70.8 9.00009C67.4 5.60009 61.88 5.60009 58.48 9.00009C57.71 9.77009 56.86 11.3601 56.13 12.9301C55.2 14.9301 52.58 15.4201 51.02 13.8601L40 2.84009L28.98 13.8601C27.42 15.4201 27.91 18.0401 29.91 18.9701C31.48 19.7001 33.07 20.5501 33.84 21.3201C37.24 24.7201 37.24 30.2401 33.84 33.6401C30.44 37.0401 24.92 37.0401 21.52 33.6401C20.75 32.8701 19.9 31.2801 19.17 29.7101C18.24 27.7101 15.62 27.2201 14.06 28.7801L3.04004 39.8001L33.84 70.6001C37.24 74.0001 42.76 74.0001 46.16 70.6001L76.96 39.8001V39.8001Z" stroke="#873FE0" stroke-width="4" stroke-miterlimit="10"/>
</svg>
