<svg width="94" height="94" viewBox="0 0 94 94" fill="none" xmlns="http://www.w3.org/2000/svg">
<path d="M62.6198 4.97989C65.1998 4.97989 67.7798 5.67989 69.8998 7.15989C75.3198 10.9599 71.3998 15.3599 67.8998 17.0399C60.5598 20.5599 52.7798 20.5599 52.7798 20.5599M31.3798 4.97989C28.7998 4.97989 26.2198 5.67989 24.0998 7.15989C18.6798 10.9599 22.5998 15.3599 26.0998 17.0399C33.4398 20.5599 41.2198 20.5599 41.2198 20.5599M16.0198 17.1999C12.0398 21.6199 17.0598 25.7399 22.5798 28.4999C28.9998 31.6999 41.2198 33.2399 41.2198 33.2399M10.8198 30.6199C6.23983 34.8999 12.0798 39.0799 18.5998 41.4599C26.9998 44.5199 38.9198 44.5199 38.9198 44.5199M3.79983 42.3799C0.439834 47.2599 6.49983 51.6199 14.5998 53.6399C25.1998 56.2799 38.3198 56.8999 38.3198 56.8999M2.85983 58.8599C2.21983 65.8599 11.9998 69.0599 22.8998 68.5199C35.2798 67.8999 38.9398 64.8599 38.9398 64.8599M5.17983 64.4399C1.03983 73.6399 3.35983 80.5799 16.0398 81.0399C28.7198 81.4999 38.9398 64.8599 38.9398 64.8599M52.7798 33.2599C52.7798 33.2599 64.9998 31.7199 71.4198 28.5199C76.9598 25.7599 81.9598 21.6399 77.9798 17.2199M55.0798 44.5599C55.0798 44.5599 66.9998 44.5599 75.3998 41.4999C81.9398 39.1199 87.7798 34.9399 83.1798 30.6599M55.6998 56.9199C55.6998 56.9199 68.8398 56.2999 79.4198 53.6599C87.4998 51.6399 93.5798 47.2999 90.2198 42.3999M55.0998 64.8399C55.0998 64.8399 58.7598 67.8999 71.1398 68.4999C82.0398 69.0399 91.8198 65.8399 91.1798 58.8399M55.0998 64.8199C55.0998 64.8199 65.3398 81.4599 77.9998 80.9999C90.6798 80.5399 92.9998 73.5999 88.8598 64.3999M42.7398 2.13989H51.3798M41.7398 80.2999H52.3798M41.7398 91.7999H52.3798M50.6398 11.9799C48.8598 9.53989 45.2398 9.53989 43.4798 11.9799C42.9798 12.6599 42.6798 13.4799 42.6398 14.3199L39.7398 62.2199C39.7398 64.8199 40.9198 67.2599 42.9598 68.8599C45.3798 70.7599 48.7798 70.7599 51.1798 68.8599C53.2198 67.2599 54.3998 64.7999 54.3998 62.2199L51.4998 14.3199C51.4398 13.4799 51.1598 12.6599 50.6598 11.9799H50.6398Z" stroke="#873FE0" stroke-width="4" stroke-linecap="round" stroke-linejoin="round"/>
</svg>
