<svg width="62" height="22" viewBox="0 0 62 22" fill="none" xmlns="http://www.w3.org/2000/svg">
<path d="M4 12.5C3.17157 12.5 2.5 11.8284 2.5 11C2.5 10.1716 3.17157 9.5 4 9.5V12.5ZM60 9.5C60.8284 9.5 61.5 10.1716 61.5 11C61.5 11.8284 60.8284 12.5 60 12.5V9.5ZM9.93934 0.93934C10.5251 0.353553 11.4749 0.353553 12.0607 0.93934C12.6464 1.52513 12.6464 2.47487 12.0607 3.06066L9.93934 0.93934ZM2 11L0.939339 12.0607C0.353554 11.4749 0.353554 10.5251 0.939339 9.93934L2 11ZM12.0607 18.9393C12.6464 19.5251 12.6464 20.4749 12.0607 21.0607C11.4749 21.6464 10.5251 21.6464 9.93934 21.0607L12.0607 18.9393ZM4 9.5H60V12.5H4V9.5ZM12.0607 3.06066L3.06066 12.0607L0.939339 9.93934L9.93934 0.93934L12.0607 3.06066ZM3.06066 9.93934L12.0607 18.9393L9.93934 21.0607L0.939339 12.0607L3.06066 9.93934Z" fill="url(#paint0_linear_4989_21412)"/>
<defs>
<linearGradient id="paint0_linear_4989_21412" x1="61.3318" y1="7.2686" x2="2.53786" y2="22.1288" gradientUnits="userSpaceOnUse">
<stop stop-color="#3A8CDD"/>
<stop offset="1" stop-color="#873FE0"/>
</linearGradient>
</defs>
</svg>
