<svg width="62" height="22" viewBox="0 0 62 22" fill="none" xmlns="http://www.w3.org/2000/svg">
<path d="M58 12.5C58.8284 12.5 59.5 11.8284 59.5 11C59.5 10.1716 58.8284 9.5 58 9.5V12.5ZM2 9.5C1.17157 9.5 0.5 10.1716 0.5 11C0.5 11.8284 1.17157 12.5 2 12.5V9.5ZM52.0607 0.93934C51.4749 0.353553 50.5251 0.353553 49.9393 0.93934C49.3536 1.52513 49.3536 2.47487 49.9393 3.06066L52.0607 0.93934ZM60 11L61.0607 12.0607C61.6465 11.4749 61.6465 10.5251 61.0607 9.93934L60 11ZM49.9393 18.9393C49.3536 19.5251 49.3536 20.4749 49.9393 21.0607C50.5251 21.6464 51.4749 21.6464 52.0607 21.0607L49.9393 18.9393ZM58 9.5H2V12.5H58V9.5ZM49.9393 3.06066L58.9393 12.0607L61.0607 9.93934L52.0607 0.93934L49.9393 3.06066ZM58.9393 9.93934L49.9393 18.9393L52.0607 21.0607L61.0607 12.0607L58.9393 9.93934Z" fill="url(#paint0_linear_4989_21409)"/>
<defs>
<linearGradient id="paint0_linear_4989_21409" x1="0.668167" y1="7.2686" x2="59.4621" y2="22.1288" gradientUnits="userSpaceOnUse">
<stop stop-color="#3A8CDD"/>
<stop offset="1" stop-color="#873FE0"/>
</linearGradient>
</defs>
</svg>
