<svg width="706" height="300" viewBox="0 0 706 300" fill="none" xmlns="http://www.w3.org/2000/svg">
<path d="M-850 150.481C-837.01 83.2359 -824.049 15.9629 -798.097 15.9629C-746.195 15.9629 -746.195 284.999 -694.292 284.999C-642.39 284.999 -642.39 15.9629 -590.487 15.9629C-538.585 15.9629 -538.585 284.999 -486.682 284.999C-434.779 284.999 -434.807 15.9629 -382.905 15.9629C-331.002 15.9629 -331.002 284.999 -279.127 284.999C-227.253 284.999 -227.225 15.9629 -175.322 15.9629C-123.42 15.9629 -123.42 284.999 -71.545 284.999C-19.6702 284.999 -19.6424 15.9629 32.2602 15.9629C84.1627 15.9629 84.1628 284.999 136.065 284.999C187.968 284.999 187.968 15.9629 239.843 15.9629C291.717 15.9629 291.745 284.999 343.62 284.999C347.931 284.999 351.909 283.141 355.58 279.703C441.167 199.702 551.008 150.481 668.331 150.481H691" stroke="url(#paint0_linear_3752_20481)" stroke-width="30" stroke-linecap="round" stroke-linejoin="round"/>
<defs>
<linearGradient id="paint0_linear_3752_20481" x1="-865.738" y1="150.481" x2="706.77" y2="150.481" gradientUnits="userSpaceOnUse">
<stop offset="0.432292" stop-color="#F3ECFC"/>
<stop offset="1" stop-color="#C39EEF"/>
</linearGradient>
</defs>
</svg>
