<svg width="81" height="95" viewBox="0 0 81 95" fill="none" xmlns="http://www.w3.org/2000/svg">
<path d="M23.5333 3.01373C23.5333 3.01373 17.0533 35.9737 36.3066 55.6271L21.3999 79.2271M46.1199 90.0537C52.1733 71.9204 41.3466 64.0537 41.3466 64.0537L27.7199 84.1337M35.7199 2.98706C35.7199 2.98706 32.7599 18.2404 39.0799 22.0271C45.3999 25.8137 60.0133 23.0137 69.8533 43.3871M62.1199 45.3604C62.1199 45.3604 54.3866 34.1071 39.7733 32.5871C39.7733 32.5871 45.7466 46.5337 53.2666 55.2004C66.0399 69.9471 60.8666 88.0804 58.7333 92.9871M33.4266 60.0804C33.4266 60.0804 24.8933 59.2804 15.0799 66.2937M74.5733 85.9737C72.5199 76.6937 60.3599 68.4537 60.3599 68.4537M78.9733 78.4804C78.9733 78.4804 75.8533 74.3204 68.7066 75.8404M49.0266 25.0937C49.0266 25.0937 58.0666 20.8537 62.0933 15.7871M63.8799 22.0537C63.8799 22.0537 61.0799 20.3471 56.1732 20.9604M2.91992 29.2537C2.91992 29.2537 6.54659 35.5204 24.6799 34.2671M2.91992 42.2671C2.91992 42.2671 8.54659 42.9604 13.7999 34.4271" stroke="#873FE0" stroke-width="4" stroke-linecap="round" stroke-linejoin="round"/>
</svg>
